<svg id="Layer_1" data-name="Layer 1" xmlns="http://www.w3.org/2000/svg" xmlns:xlink="http://www.w3.org/1999/xlink" viewBox="0 0 498 88"><defs><style>.cls-1{fill:gray;}.cls-2{fill:url(#linear-gradient);}</style><linearGradient id="linear-gradient" x1="56.41" y1="74.16" x2="21.59" y2="13.84" gradientUnits="userSpaceOnUse"><stop offset="0.07" stop-color="#fa5050"/><stop offset="0.37" stop-color="#1767fc"/><stop offset="0.66" stop-color="#199bf9"/><stop offset="0.96" stop-color="#4ff4d2"/></linearGradient></defs><title>Awery ERP</title><rect x="203" y="22" width="38" height="3"/><polygon points="195.89 22 192.6 22 176.6 59 160.6 22 144.6 59 128.6 22 125 22 144.76 66 160.6 29 176.41 66 195.89 22"/><polygon points="333 22 329 22 311.59 42 296 22 292 22 310 45.1 310 66 313 66 313 45.49 333 22"/><rect x="203" y="63" width="38" height="3"/><rect x="203" y="42" width="38" height="3"/><path d="M108,21.72,96.67,48h3L108,28.82,124.19,66h2.87ZM95.38,51,88.93,66h2.87L97,54h11.92l-1.23-3Z"/><path d="M270.6,45h3.9a11.5,11.5,0,0,0,0-23H248l2.52,3h24.08a8.5,8.5,0,0,1,0,17h-9.79L285,66h3.5Z"/><rect class="cls-1" x="458" y="44" width="3" height="22"/><rect class="cls-1" x="361" y="22" width="38" height="3"/><rect class="cls-1" x="361" y="63" width="38" height="3"/><rect class="cls-1" x="361" y="42" width="38" height="3"/><path class="cls-1" d="M428.6,45h3.9a11.5,11.5,0,0,0,0-23H406l2.52,3h24.08a8.5,8.5,0,0,1,0,17h-9.79L443,66h3.5Z"/><path class="cls-1" d="M482,22H458v3h24.11a8.5,8.5,0,0,1,0,17H458v3h24a11.5,11.5,0,0,0,0-23Z"/><path class="cls-2" d="M39,4,4,24V64L39,84,74,64V24ZM71,24.58,58,32V17.16ZM55.7,72.15,40.94,63.77,56,55.23V72ZM20.07,51.91l-14-8,14-7.9Zm2,20.11V55.35l14.82,8.42L22.21,72.1Zm.14-56.12L37,24.23l-14.9,8.39V16ZM23.6,34,38,25.95V42.28ZM37,44,22.07,52.52v-17ZM23.63,53.93,38,45.72V62.1ZM40,42.28V25.95l14.37,8.12Zm16-6.84V52.56L41,44ZM40,45.72l14.3,8.17L40,62Zm1-21.49,14.78-8.32L56,16V32.69ZM58,36.11l13.85,7.82L58,51.8ZM53.8,14.76,40,22.53V6.87ZM38,6.87V22.52L24.23,14.74ZM20.07,32,7,24.58l13-7.45ZM6,26.29,19.55,34,6,41.66ZM6,46.22l13.59,7.72L6,61.71Zm1,17.2,13-7.45V70.88Zm17.2,9.83L38,65.44V81.13ZM40,81.13V65.53l13.68,7.77ZM58,56l13,7.42L58,70.84Zm14,5.7L58.34,53.9,72,46.15Zm0-20L58.42,34.05,72,26.29Z"/></svg>